<?xml version="1.0" encoding="utf-8"?>
<!-- Generator: Adobe Illustrator 27.5.0, SVG Export Plug-In . SVG Version: 6.00 Build 0)  -->
<svg version="1.1" xmlns="http://www.w3.org/2000/svg" xmlns:xlink="http://www.w3.org/1999/xlink" x="0px" y="0px"
	 viewBox="0 0 1920 480" style="enable-background:new 0 0 1920 480;" xml:space="preserve">
	<g id="BACKGROUND">
		<rect width="1920" height="480"/>
	</g>
	<g id="OBJECTS">
		<g>
			<defs>
				<rect id="SVGID_1_" width="1920" height="480"/>
			</defs>
			<clipPath id="SVGID_00000103947251699505255930000007253247258946677671_">
				<use xlink:href="#SVGID_1_"  style="overflow:visible;"/>
			</clipPath>
			<g style="clip-path:url(#SVGID_00000103947251699505255930000007253247258946677671_);">
				<circle style="fill:#1A1A1A;" cx="1920" cy="232.747" r="168.555"/>
				<circle style="fill:#660B0B;" cx="1920" cy="232.747" r="72.364"/>
				<circle style="fill:#1A1A1A;" cx="0" cy="232.747" r="168.555"/>
				<circle style="fill:#660B0B;" cx="0" cy="232.747" r="72.364"/>
				<g>
					<line style="fill:none;stroke:#ECECEC;stroke-width:2;stroke-linecap:round;stroke-linejoin:round;stroke-miterlimit:10;" x1="1640.323" y1="-41.466" x2="1606.213" y2="-7.357"/>
					<line style="fill:none;stroke:#ECECEC;stroke-width:2;stroke-linecap:round;stroke-linejoin:round;stroke-miterlimit:10;" x1="1673.728" y1="-56.539" x2="1591.827" y2="25.372"/>
					<polyline style="fill:none;stroke:#ECECEC;stroke-width:2;stroke-linecap:round;stroke-linejoin:round;stroke-miterlimit:10;" points="
					1696.533,-60.993 1587.711,47.82 1587.711,47.829 				"/>
					<line style="fill:none;stroke:#ECECEC;stroke-width:2;stroke-linecap:round;stroke-linejoin:round;stroke-miterlimit:10;" x1="1715.608" y1="-61.726" x2="1587.157" y2="66.726"/>
					<line style="fill:none;stroke:#ECECEC;stroke-width:2;stroke-linecap:round;stroke-linejoin:round;stroke-miterlimit:10;" x1="1732.41" y1="-60.194" x2="1588.951" y2="83.264"/>
					<line style="fill:none;stroke:#ECECEC;stroke-width:2;stroke-linecap:round;stroke-linejoin:round;stroke-miterlimit:10;" x1="1747.529" y1="-56.971" x2="1592.344" y2="98.224"/>
					<line style="fill:none;stroke:#ECECEC;stroke-width:2;stroke-linecap:round;stroke-linejoin:round;stroke-miterlimit:10;" x1="1761.267" y1="-52.367" x2="1597.126" y2="111.783"/>
					<line style="fill:none;stroke:#ECECEC;stroke-width:2;stroke-linecap:round;stroke-linejoin:round;stroke-miterlimit:10;" x1="1773.802" y1="-46.56" x2="1603.168" y2="124.083"/>
					<line style="fill:none;stroke:#ECECEC;stroke-width:2;stroke-linecap:round;stroke-linejoin:round;stroke-miterlimit:10;" x1="1785.228" y1="-39.634" x2="1610.395" y2="135.199"/>
					<line style="fill:none;stroke:#ECECEC;stroke-width:2;stroke-linecap:round;stroke-linejoin:round;stroke-miterlimit:10;" x1="1795.574" y1="-31.638" x2="1618.71" y2="145.225"/>
					<line style="fill:none;stroke:#ECECEC;stroke-width:2;stroke-linecap:round;stroke-linejoin:round;stroke-miterlimit:10;" x1="1804.876" y1="-22.598" x2="1628.107" y2="154.171"/>
					<line style="fill:none;stroke:#ECECEC;stroke-width:2;stroke-linecap:round;stroke-linejoin:round;stroke-miterlimit:10;" x1="1813.098" y1="-12.478" x2="1638.556" y2="162.064"/>
					<line style="fill:none;stroke:#ECECEC;stroke-width:2;stroke-linecap:round;stroke-linejoin:round;stroke-miterlimit:10;" x1="1820.212" y1="-1.249" x2="1650.067" y2="168.895"/>
					<line style="fill:none;stroke:#ECECEC;stroke-width:2;stroke-linecap:round;stroke-linejoin:round;stroke-miterlimit:10;" x1="1826.15" y1="11.155" x2="1662.715" y2="174.59"/>
					<line style="fill:none;stroke:#ECECEC;stroke-width:2;stroke-linecap:round;stroke-linejoin:round;stroke-miterlimit:10;" x1="1830.811" y1="24.836" x2="1676.566" y2="179.081"/>
					<line style="fill:none;stroke:#ECECEC;stroke-width:2;stroke-linecap:round;stroke-linejoin:round;stroke-miterlimit:10;" x1="1834.062" y1="39.927" x2="1691.826" y2="182.163"/>
					<line style="fill:none;stroke:#ECECEC;stroke-width:2;stroke-linecap:round;stroke-linejoin:round;stroke-miterlimit:10;" x1="1835.707" y1="56.625" x2="1708.805" y2="183.526"/>
					<line style="fill:none;stroke:#ECECEC;stroke-width:2;stroke-linecap:round;stroke-linejoin:round;stroke-miterlimit:10;" x1="1834.87" y1="75.803" x2="1728.144" y2="182.53"/>
					<line style="fill:none;stroke:#ECECEC;stroke-width:2;stroke-linecap:round;stroke-linejoin:round;stroke-miterlimit:10;" x1="1830.294" y1="98.722" x2="1751.428" y2="177.587"/>
					<line style="fill:none;stroke:#ECECEC;stroke-width:2;stroke-linecap:round;stroke-linejoin:round;stroke-miterlimit:10;" x1="1812.986" y1="134.382" x2="1787.821" y2="159.546"/>
				</g>
				<g>
					<line style="fill:none;stroke:#ECECEC;stroke-width:2;stroke-linecap:round;stroke-linejoin:round;stroke-miterlimit:10;" x1="118.326" y1="314.994" x2="81.181" y2="352.139"/>
					<line style="fill:none;stroke:#ECECEC;stroke-width:2;stroke-linecap:round;stroke-linejoin:round;stroke-miterlimit:10;" x1="154.704" y1="298.58" x2="65.514" y2="387.78"/>
					<polyline style="fill:none;stroke:#ECECEC;stroke-width:2;stroke-linecap:round;stroke-linejoin:round;stroke-miterlimit:10;" points="
					179.539,293.73 61.032,412.227 61.032,412.237 				"/>
					<line style="fill:none;stroke:#ECECEC;stroke-width:2;stroke-linecap:round;stroke-linejoin:round;stroke-miterlimit:10;" x1="200.312" y1="292.932" x2="60.429" y2="432.815"/>
					<line style="fill:none;stroke:#ECECEC;stroke-width:2;stroke-linecap:round;stroke-linejoin:round;stroke-miterlimit:10;" x1="218.609" y1="294.6" x2="62.383" y2="450.825"/>
					<line style="fill:none;stroke:#ECECEC;stroke-width:2;stroke-linecap:round;stroke-linejoin:round;stroke-miterlimit:10;" x1="235.073" y1="298.11" x2="66.077" y2="467.116"/>
					<line style="fill:none;stroke:#ECECEC;stroke-width:2;stroke-linecap:round;stroke-linejoin:round;stroke-miterlimit:10;" x1="250.034" y1="303.124" x2="71.286" y2="481.882"/>
					<line style="fill:none;stroke:#ECECEC;stroke-width:2;stroke-linecap:round;stroke-linejoin:round;stroke-miterlimit:10;" x1="263.684" y1="309.448" x2="77.865" y2="495.277"/>
					<line style="fill:none;stroke:#ECECEC;stroke-width:2;stroke-linecap:round;stroke-linejoin:round;stroke-miterlimit:10;" x1="276.128" y1="316.989" x2="85.734" y2="507.382"/>
					<line style="fill:none;stroke:#ECECEC;stroke-width:2;stroke-linecap:round;stroke-linejoin:round;stroke-miterlimit:10;" x1="287.394" y1="325.697" x2="94.791" y2="518.301"/>
					<line style="fill:none;stroke:#ECECEC;stroke-width:2;stroke-linecap:round;stroke-linejoin:round;stroke-miterlimit:10;" x1="297.525" y1="335.542" x2="105.023" y2="528.043"/>
					<line style="fill:none;stroke:#ECECEC;stroke-width:2;stroke-linecap:round;stroke-linejoin:round;stroke-miterlimit:10;" x1="306.478" y1="346.562" x2="116.402" y2="536.638"/>
					<line style="fill:none;stroke:#ECECEC;stroke-width:2;stroke-linecap:round;stroke-linejoin:round;stroke-miterlimit:10;" x1="314.225" y1="358.791" x2="128.938" y2="544.078"/>
					<line style="fill:none;stroke:#ECECEC;stroke-width:2;stroke-linecap:round;stroke-linejoin:round;stroke-miterlimit:10;" x1="320.692" y1="372.298" x2="142.711" y2="550.279"/>
					<line style="fill:none;stroke:#ECECEC;stroke-width:2;stroke-linecap:round;stroke-linejoin:round;stroke-miterlimit:10;" x1="325.767" y1="387.197" x2="157.794" y2="555.17"/>
					<line style="fill:none;stroke:#ECECEC;stroke-width:2;stroke-linecap:round;stroke-linejoin:round;stroke-miterlimit:10;" x1="329.308" y1="403.631" x2="174.413" y2="558.526"/>
					<line style="fill:none;stroke:#ECECEC;stroke-width:2;stroke-linecap:round;stroke-linejoin:round;stroke-miterlimit:10;" x1="331.099" y1="421.815" x2="192.904" y2="560.01"/>
					<line style="fill:none;stroke:#ECECEC;stroke-width:2;stroke-linecap:round;stroke-linejoin:round;stroke-miterlimit:10;" x1="330.188" y1="442.7" x2="213.963" y2="558.925"/>
					<line style="fill:none;stroke:#ECECEC;stroke-width:2;stroke-linecap:round;stroke-linejoin:round;stroke-miterlimit:10;" x1="325.205" y1="467.658" x2="239.32" y2="553.543"/>
					<line style="fill:none;stroke:#ECECEC;stroke-width:2;stroke-linecap:round;stroke-linejoin:round;stroke-miterlimit:10;" x1="306.356" y1="506.492" x2="278.952" y2="533.896"/>
				</g>
				<rect x="666.294" y="198.412" style="fill:#1A1A1A;" width="587.412" height="83.176"/>
				<rect x="1527.277" y="388.894" transform="matrix(0.7071 0.7071 -0.7071 0.7071 806.4297 -1126.5665)" style="fill:#1A1A1A;" width="471.647" height="42.54"/>
				<rect x="1475.608" y="440.563" transform="matrix(0.7071 0.7071 -0.7071 0.7071 827.8318 -1074.8972)" style="fill:#1A1A1A;" width="471.647" height="42.54"/>
				<rect x="1423.939" y="492.232" transform="matrix(0.7071 0.7071 -0.7071 0.7071 849.2338 -1023.2278)" style="fill:#1A1A1A;" width="471.647" height="42.54"/>
				<rect x="31.146" y="-53.651" transform="matrix(0.7071 0.7071 -0.7071 0.7071 55.2967 -198.2602)" style="fill:#1A1A1A;" width="471.647" height="42.54"/>
				<rect x="-20.523" y="-1.982" transform="matrix(0.7071 0.7071 -0.7071 0.7071 76.6987 -146.5909)" style="fill:#1A1A1A;" width="471.647" height="42.54"/>
				<rect x="-72.193" y="49.687" transform="matrix(0.7071 0.7071 -0.7071 0.7071 98.1009 -94.9216)" style="fill:#1A1A1A;" width="471.647" height="42.54"/>
			</g>
			<g style="clip-path:url(#SVGID_00000103947251699505255930000007253247258946677671_);">
				<g>
					<path style="fill:none;stroke:#FFFFFF;stroke-width:5.0777;stroke-miterlimit:10;" d="M923.183,411.454
					c0,84.659-68.875,153.534-153.537,153.534c-84.659,0-153.534-68.875-153.534-153.534h62.778
					c0,50.042,40.713,90.757,90.757,90.757c50.045,0,90.759-40.714,90.759-90.757H923.183z"/>
				</g>
			</g>
			<g style="clip-path:url(#SVGID_00000103947251699505255930000007253247258946677671_);">
				<g>
					<path style="fill:none;stroke:#FFFFFF;stroke-width:5.0777;stroke-miterlimit:10;" d="M308.169-78.342
					c59.863,59.863,59.863,157.267-0.002,217.132c-59.863,59.863-157.267,59.863-217.13,0l44.39-44.391
					c35.385,35.385,92.963,35.386,128.349,0c35.387-35.387,35.387-92.966,0.002-128.351L308.169-78.342z"/>
				</g>
			</g>
			<g style="clip-path:url(#SVGID_00000103947251699505255930000007253247258946677671_);">
				<g>
					<path style="fill:none;stroke:#FFFFFF;stroke-width:5.0777;stroke-miterlimit:10;" d="M1317.167,142.01
					c-84.659,0-153.534-68.875-153.534-153.537c0-84.659,68.875-153.534,153.534-153.534v62.778
					c-50.042,0-90.757,40.713-90.757,90.757c0,50.045,40.714,90.759,90.757,90.759V142.01z"/>
				</g>
			</g>
			<g style="clip-path:url(#SVGID_00000103947251699505255930000007253247258946677671_);">
				<g>
					<path style="fill:none;stroke:#FFFFFF;stroke-width:5.0777;stroke-miterlimit:10;" d="M2001.217,520.447
					c-59.863,59.863-157.267,59.863-217.132-0.002c-59.863-59.863-59.863-157.267,0-217.13l44.39,44.391
					c-35.385,35.385-35.386,92.963,0,128.35c35.387,35.387,92.966,35.387,128.351,0.002L2001.217,520.447z"/>
				</g>
			</g>
			<g style="clip-path:url(#SVGID_00000103947251699505255930000007253247258946677671_);">
				<g>
					<g>
						<g>
							<g>
								<path style="fill:#980E10;" d="M1230.293,501.034c0.085,5.806-9.038,5.806-8.952-0.001
								C1221.256,495.227,1230.379,495.227,1230.293,501.034z"/>
								<path style="fill:#980E10;" d="M1271.999,501.034c0.086,5.806-9.037,5.806-8.951-0.001
								C1262.963,495.227,1272.085,495.227,1271.999,501.034z"/>
								<path style="fill:#980E10;" d="M1313.706,501.034c0.085,5.806-9.038,5.806-8.952-0.001
								C1304.669,495.227,1313.792,495.227,1313.706,501.034z"/>
								<path style="fill:#980E10;" d="M1355.412,501.034c0.085,5.807-9.037,5.806-8.951-0.001
								C1346.375,495.227,1355.498,495.227,1355.412,501.034z"/>
								<path style="fill:#980E10;" d="M1397.119,501.034c0.085,5.807-9.037,5.807-8.951-0.001
								C1388.082,495.227,1397.204,495.227,1397.119,501.034z"/>
							</g>
							<g>
								<path style="fill:#980E10;" d="M1230.293,542.603c0.085,5.807-9.038,5.807-8.952,0
								C1221.256,536.797,1230.379,536.797,1230.293,542.603z"/>
								<path style="fill:#980E10;" d="M1271.999,542.603c0.085,5.807-9.037,5.807-8.951,0
								C1262.963,536.797,1272.085,536.797,1271.999,542.603z"/>
								<path style="fill:#980E10;" d="M1313.706,542.603c0.085,5.807-9.038,5.807-8.952,0
								C1304.669,536.797,1313.792,536.797,1313.706,542.603z"/>
								<path style="fill:#980E10;" d="M1355.412,542.603c0.085,5.807-9.037,5.807-8.951,0
								C1346.375,536.797,1355.498,536.797,1355.412,542.603z"/>
								<path style="fill:#980E10;" d="M1397.119,542.603c0.085,5.807-9.037,5.807-8.951,0
								C1388.082,536.797,1397.204,536.797,1397.119,542.603z"/>
							</g>
							<g>
								<path style="fill:#980E10;" d="M1230.293,584.173c0.085,5.807-9.038,5.807-8.952,0
								C1221.256,578.366,1230.379,578.366,1230.293,584.173z"/>
								<path style="fill:#980E10;" d="M1271.999,584.173c0.085,5.807-9.037,5.807-8.951,0
								C1262.963,578.366,1272.085,578.366,1271.999,584.173z"/>
								<path style="fill:#980E10;" d="M1313.706,584.173c0.085,5.807-9.038,5.807-8.952,0
								C1304.669,578.366,1313.792,578.366,1313.706,584.173z"/>
								<path style="fill:#980E10;" d="M1355.412,584.173c0.085,5.807-9.037,5.807-8.951,0
								C1346.375,578.366,1355.498,578.366,1355.412,584.173z"/>
								<path style="fill:#980E10;" d="M1397.119,584.173c0.085,5.807-9.037,5.807-8.951,0
								C1388.082,578.366,1397.204,578.366,1397.119,584.173z"/>
							</g>
							<g>
								<path style="fill:#980E10;" d="M1230.293,625.742c0.085,5.807-9.038,5.807-8.952,0
								C1221.256,619.936,1230.379,619.935,1230.293,625.742z"/>
								<path style="fill:#980E10;" d="M1271.999,625.742c0.085,5.807-9.037,5.807-8.951,0
								C1262.963,619.936,1272.085,619.935,1271.999,625.742z"/>
								<path style="fill:#980E10;" d="M1313.706,625.742c0.085,5.807-9.038,5.807-8.952,0
								C1304.669,619.936,1313.792,619.935,1313.706,625.742z"/>
								<path style="fill:#980E10;" d="M1355.412,625.743c0.085,5.806-9.037,5.806-8.951-0.001
								C1346.375,619.936,1355.498,619.935,1355.412,625.743z"/>
								<path style="fill:#980E10;" d="M1397.119,625.743c0.085,5.806-9.037,5.806-8.951,0
								C1388.082,619.936,1397.204,619.935,1397.119,625.743z"/>
							</g>
							<g>
								<path style="fill:#980E10;" d="M1230.293,667.312c0.085,5.807-9.038,5.807-8.952-0.001
								C1221.256,661.505,1230.379,661.505,1230.293,667.312z"/>
								<path style="fill:#980E10;" d="M1271.999,667.312c0.086,5.807-9.037,5.807-8.951-0.001
								C1262.963,661.505,1272.085,661.505,1271.999,667.312z"/>
								<path style="fill:#980E10;" d="M1313.706,667.312c0.085,5.807-9.038,5.807-8.952-0.001
								C1304.669,661.505,1313.792,661.505,1313.706,667.312z"/>
								<path style="fill:#980E10;" d="M1355.412,667.312c0.085,5.807-9.037,5.807-8.951-0.001
								C1346.375,661.505,1355.498,661.505,1355.412,667.312z"/>
								<path style="fill:#980E10;" d="M1397.119,667.312c0.085,5.807-9.037,5.807-8.951-0.001
								C1388.082,661.505,1397.204,661.505,1397.119,667.312z"/>
							</g>
							<g>
								<path style="fill:#980E10;" d="M1230.293,376.326c0.085,5.806-9.038,5.806-8.952,0
								C1221.257,370.519,1230.379,370.518,1230.293,376.326z"/>
								<path style="fill:#980E10;" d="M1271.999,376.326c0.085,5.806-9.037,5.806-8.951,0
								C1262.963,370.519,1272.085,370.518,1271.999,376.326z"/>
								<path style="fill:#980E10;" d="M1313.706,376.326c0.085,5.807-9.038,5.807-8.952,0
								C1304.669,370.519,1313.792,370.518,1313.706,376.326z"/>
								<path style="fill:#980E10;" d="M1355.412,376.326c0.085,5.807-9.037,5.807-8.951,0
								C1346.375,370.519,1355.498,370.518,1355.412,376.326z"/>
								<path style="fill:#980E10;" d="M1397.119,376.326c0.085,5.807-9.037,5.807-8.951,0
								C1388.082,370.519,1397.204,370.518,1397.119,376.326z"/>
							</g>
							<g>
								<path style="fill:#980E10;" d="M1230.293,417.895c0.085,5.806-9.038,5.806-8.952-0.001
								C1221.257,412.088,1230.379,412.088,1230.293,417.895z"/>
								<path style="fill:#980E10;" d="M1271.999,417.895c0.086,5.807-9.037,5.807-8.951-0.001
								C1262.963,412.088,1272.085,412.088,1271.999,417.895z"/>
								<path style="fill:#980E10;" d="M1313.706,417.895c0.085,5.807-9.038,5.807-8.952-0.001
								C1304.669,412.088,1313.792,412.088,1313.706,417.895z"/>
								<path style="fill:#980E10;" d="M1355.412,417.895c0.085,5.807-9.037,5.807-8.951-0.001
								C1346.375,412.088,1355.498,412.088,1355.412,417.895z"/>
								<path style="fill:#980E10;" d="M1397.119,417.895c0.085,5.806-9.037,5.806-8.951-0.001
								C1388.082,412.088,1397.204,412.088,1397.119,417.895z"/>
							</g>
							<g>
								<path style="fill:#980E10;" d="M1230.293,459.464c0.085,5.807-9.038,5.807-8.952,0
								C1221.256,453.658,1230.379,453.658,1230.293,459.464z"/>
								<path style="fill:#980E10;" d="M1271.999,459.464c0.086,5.807-9.037,5.807-8.951,0
								C1262.963,453.658,1272.085,453.658,1271.999,459.464z"/>
								<path style="fill:#980E10;" d="M1313.706,459.464c0.085,5.806-9.038,5.807-8.952,0
								C1304.669,453.658,1313.792,453.658,1313.706,459.464z"/>
								<path style="fill:#980E10;" d="M1355.412,459.464c0.085,5.806-9.037,5.807-8.951,0
								C1346.375,453.658,1355.498,453.658,1355.412,459.464z"/>
								<path style="fill:#980E10;" d="M1397.119,459.464c0.085,5.806-9.037,5.807-8.951,0
								C1388.082,453.658,1397.204,453.658,1397.119,459.464z"/>
							</g>
						</g>
					</g>
					<g>
						<g>
							<g>
								<path style="fill:#980E10;" d="M519.304-61.275c0.085,5.806-9.038,5.806-8.952-0.001
								C510.267-67.082,519.39-67.082,519.304-61.275z"/>
								<path style="fill:#980E10;" d="M561.01-61.275c0.086,5.806-9.037,5.806-8.951-0.001
								C551.974-67.082,561.096-67.082,561.01-61.275z"/>
								<path style="fill:#980E10;" d="M602.717-61.275c0.085,5.807-9.038,5.807-8.952-0.001
								C593.68-67.082,602.803-67.082,602.717-61.275z"/>
								<path style="fill:#980E10;" d="M644.423-61.275c0.085,5.807-9.037,5.807-8.951-0.001
								C635.386-67.082,644.509-67.082,644.423-61.275z"/>
								<path style="fill:#980E10;" d="M686.13-61.275c0.085,5.807-9.037,5.807-8.951-0.001
								C677.093-67.082,686.215-67.082,686.13-61.275z"/>
							</g>
							<g>
								<path style="fill:#980E10;" d="M519.304-19.706c0.085,5.807-9.038,5.807-8.952,0
								C510.267-25.512,519.39-25.512,519.304-19.706z"/>
								<path style="fill:#980E10;" d="M561.01-19.706c0.086,5.807-9.037,5.807-8.951,0C551.974-25.512,561.096-25.512,561.01-19.706
								z"/>
								<path style="fill:#980E10;" d="M602.717-19.706c0.085,5.807-9.038,5.807-8.952,0
								C593.68-25.512,602.803-25.512,602.717-19.706z"/>
								<path style="fill:#980E10;" d="M644.423-19.706c0.085,5.807-9.037,5.807-8.951,0
								C635.386-25.512,644.509-25.512,644.423-19.706z"/>
								<path style="fill:#980E10;" d="M686.129-19.706c0.085,5.806-9.037,5.807-8.951,0
								C677.093-25.512,686.215-25.512,686.129-19.706z"/>
							</g>
							<g>
								<path style="fill:#980E10;" d="M519.304,21.864c0.085,5.807-9.038,5.807-8.952,0
								C510.267,16.057,519.39,16.057,519.304,21.864z"/>
								<path style="fill:#980E10;" d="M561.01,21.864c0.085,5.807-9.037,5.807-8.951,0C551.974,16.057,561.096,16.057,561.01,21.864
								z"/>
								<path style="fill:#980E10;" d="M602.717,21.864c0.085,5.807-9.038,5.807-8.952,0
								C593.68,16.057,602.803,16.057,602.717,21.864z"/>
								<path style="fill:#980E10;" d="M644.423,21.864c0.085,5.807-9.037,5.807-8.951,0
								C635.386,16.057,644.509,16.057,644.423,21.864z"/>
								<path style="fill:#980E10;" d="M686.129,21.864c0.085,5.807-9.037,5.807-8.951,0
								C677.093,16.057,686.215,16.057,686.129,21.864z"/>
							</g>
							<g>
								<path style="fill:#980E10;" d="M519.304,63.433c0.085,5.807-9.038,5.807-8.952,0
								C510.267,57.627,519.39,57.626,519.304,63.433z"/>
								<path style="fill:#980E10;" d="M561.01,63.433c0.085,5.807-9.037,5.807-8.951,0C551.973,57.627,561.096,57.626,561.01,63.433
								z"/>
								<path style="fill:#980E10;" d="M602.717,63.434c0.085,5.806-9.038,5.806-8.952-0.001
								C593.68,57.627,602.803,57.626,602.717,63.434z"/>
								<path style="fill:#980E10;" d="M644.423,63.434c0.085,5.806-9.037,5.806-8.951,0
								C635.386,57.627,644.509,57.626,644.423,63.434z"/>
								<path style="fill:#980E10;" d="M686.129,63.434c0.085,5.806-9.037,5.806-8.951,0
								C677.093,57.627,686.215,57.626,686.129,63.434z"/>
							</g>
							<g>
								<path style="fill:#980E10;" d="M519.304,105.003c0.085,5.807-9.038,5.807-8.952-0.001
								C510.267,99.196,519.39,99.196,519.304,105.003z"/>
								<path style="fill:#980E10;" d="M561.01,105.003c0.085,5.807-9.037,5.807-8.951-0.001
								C551.973,99.196,561.096,99.196,561.01,105.003z"/>
								<path style="fill:#980E10;" d="M602.717,105.003c0.085,5.807-9.038,5.807-8.952-0.001
								C593.68,99.196,602.803,99.196,602.717,105.003z"/>
								<path style="fill:#980E10;" d="M644.423,105.003c0.085,5.807-9.037,5.807-8.951-0.001
								C635.386,99.196,644.509,99.196,644.423,105.003z"/>
								<path style="fill:#980E10;" d="M686.129,105.003c0.085,5.807-9.037,5.807-8.951-0.001
								C677.093,99.196,686.215,99.196,686.129,105.003z"/>
							</g>
							<g>
								<path style="fill:#980E10;" d="M519.304-185.984c0.085,5.807-9.038,5.807-8.952,0
								C510.267-191.79,519.39-191.791,519.304-185.984z"/>
								<path style="fill:#980E10;" d="M561.01-185.984c0.085,5.807-9.037,5.807-8.951,0
								C551.974-191.79,561.096-191.79,561.01-185.984z"/>
								<path style="fill:#980E10;" d="M602.717-185.984c0.085,5.807-9.038,5.807-8.952,0
								C593.68-191.79,602.803-191.79,602.717-185.984z"/>
								<path style="fill:#980E10;" d="M644.423-185.984c0.085,5.807-9.037,5.807-8.951,0
								C635.386-191.79,644.509-191.79,644.423-185.984z"/>
								<path style="fill:#980E10;" d="M686.13-185.983c0.085,5.807-9.037,5.807-8.951-0.001
								C677.093-191.79,686.216-191.79,686.13-185.983z"/>
							</g>
							<g>
								<path style="fill:#980E10;" d="M519.304-144.414c0.085,5.807-9.038,5.807-8.952-0.001
								C510.267-150.221,519.39-150.221,519.304-144.414z"/>
								<path style="fill:#980E10;" d="M561.01-144.414c0.085,5.807-9.037,5.807-8.951-0.001
								C551.974-150.221,561.096-150.221,561.01-144.414z"/>
								<path style="fill:#980E10;" d="M602.717-144.414c0.085,5.807-9.038,5.807-8.952-0.001
								C593.68-150.221,602.803-150.221,602.717-144.414z"/>
								<path style="fill:#980E10;" d="M644.423-144.414c0.085,5.806-9.037,5.806-8.951-0.001
								C635.386-150.221,644.509-150.221,644.423-144.414z"/>
								<path style="fill:#980E10;" d="M686.13-144.414c0.085,5.806-9.037,5.806-8.951-0.001
								C677.093-150.221,686.216-150.221,686.13-144.414z"/>
							</g>
							<g>
								<path style="fill:#980E10;" d="M519.304-102.845c0.085,5.807-9.038,5.807-8.952,0
								C510.267-108.651,519.39-108.651,519.304-102.845z"/>
								<path style="fill:#980E10;" d="M561.01-102.845c0.086,5.807-9.037,5.807-8.951,0
								C551.974-108.651,561.096-108.651,561.01-102.845z"/>
								<path style="fill:#980E10;" d="M602.717-102.845c0.085,5.807-9.038,5.807-8.952,0
								C593.68-108.651,602.803-108.651,602.717-102.845z"/>
								<path style="fill:#980E10;" d="M644.423-102.845c0.085,5.807-9.037,5.807-8.951,0
								C635.386-108.651,644.509-108.651,644.423-102.845z"/>
								<path style="fill:#980E10;" d="M686.13-102.845c0.085,5.807-9.037,5.807-8.951,0
								C677.093-108.651,686.215-108.651,686.13-102.845z"/>
							</g>
						</g>
					</g>
				</g>
			</g>
			<g style="clip-path:url(#SVGID_00000103947251699505255930000007253247258946677671_);">
				<g>
					<g>
						<path style="fill:#FFFFFF;" d="M584.599,246.951c3.592,0,6.503,2.911,6.503,6.503c0,3.591-2.911,6.503-6.503,6.503
						c-3.591,0-6.503-2.912-6.503-6.503C578.096,249.863,581.007,246.951,584.599,246.951z"/>
						<path style="fill:#FFFFFF;" d="M559.024,246.951c3.592,0,6.503,2.911,6.503,6.503c0,3.591-2.911,6.503-6.503,6.503
						c-3.591,0-6.503-2.912-6.503-6.503C552.521,249.863,555.433,246.951,559.024,246.951z"/>
						<path style="fill:#FFFFFF;" d="M533.45,246.951c3.591,0,6.503,2.911,6.503,6.503c0,3.591-2.911,6.503-6.503,6.503
						c-3.592,0-6.503-2.912-6.503-6.503C526.947,249.863,529.859,246.951,533.45,246.951z"/>
						<path style="fill:#FFFFFF;" d="M507.876,246.951c3.591,0,6.503,2.911,6.503,6.503c0,3.591-2.911,6.503-6.503,6.503
						c-3.592,0-6.503-2.912-6.503-6.503C501.373,249.863,504.284,246.951,507.876,246.951z"/>
						<path style="fill:#FFFFFF;" d="M613.899,220.043c3.592,0,6.503,2.911,6.503,6.503c0,3.592-2.911,6.503-6.503,6.503
						c-3.591,0-6.503-2.911-6.503-6.503C607.397,222.954,610.308,220.043,613.899,220.043z"/>
						<path style="fill:#FFFFFF;" d="M588.325,220.043c3.592,0,6.503,2.911,6.503,6.503c0,3.592-2.911,6.503-6.503,6.503
						c-3.591,0-6.503-2.911-6.503-6.503C581.822,222.954,584.734,220.043,588.325,220.043z"/>
						<path style="fill:#FFFFFF;" d="M562.751,220.043c3.591,0,6.503,2.911,6.503,6.503c0,3.592-2.911,6.503-6.503,6.503
						c-3.592,0-6.503-2.911-6.503-6.503C556.248,222.954,559.159,220.043,562.751,220.043z"/>
						<path style="fill:#FFFFFF;" d="M537.177,220.043c3.591,0,6.503,2.911,6.503,6.503c0,3.592-2.911,6.503-6.503,6.503
						c-3.592,0-6.503-2.911-6.503-6.503C530.674,222.954,533.585,220.043,537.177,220.043z"/>
						<path style="fill:#FFFFFF;" d="M482.302,246.951c3.592,0,6.503,2.911,6.503,6.503c0,3.591-2.911,6.503-6.503,6.503
						c-3.591,0-6.503-2.912-6.503-6.503C475.799,249.863,478.711,246.951,482.302,246.951z"/>
						<path style="fill:#FFFFFF;" d="M456.728,246.951c3.592,0,6.503,2.911,6.503,6.503c0,3.591-2.911,6.503-6.503,6.503
						c-3.591,0-6.503-2.912-6.503-6.503C450.225,249.863,453.137,246.951,456.728,246.951z"/>
						<path style="fill:#FFFFFF;" d="M431.154,246.951c3.591,0,6.503,2.911,6.503,6.503c0,3.591-2.911,6.503-6.503,6.503
						c-3.591,0-6.503-2.912-6.503-6.503C424.651,249.863,427.562,246.951,431.154,246.951z"/>
						<path style="fill:#FFFFFF;" d="M405.58,246.951c3.591,0,6.503,2.911,6.503,6.503c0,3.591-2.911,6.503-6.503,6.503
						c-3.591,0-6.503-2.912-6.503-6.503C399.077,249.863,401.988,246.951,405.58,246.951z"/>
						<path style="fill:#FFFFFF;" d="M511.603,220.043c3.591,0,6.503,2.911,6.503,6.503c0,3.592-2.911,6.503-6.503,6.503
						c-3.591,0-6.503-2.911-6.503-6.503C505.1,222.954,508.012,220.043,511.603,220.043z"/>
						<path style="fill:#FFFFFF;" d="M486.029,220.043c3.591,0,6.503,2.911,6.503,6.503c0,3.592-2.911,6.503-6.503,6.503
						c-3.591,0-6.503-2.911-6.503-6.503C479.526,222.954,482.437,220.043,486.029,220.043z"/>
						<path style="fill:#FFFFFF;" d="M460.455,220.043c3.591,0,6.503,2.911,6.503,6.503c0,3.592-2.911,6.503-6.503,6.503
						c-3.591,0-6.503-2.911-6.503-6.503C453.952,222.954,456.863,220.043,460.455,220.043z"/>
						<path style="fill:#FFFFFF;" d="M434.881,220.043c3.592,0,6.503,2.911,6.503,6.503c0,3.592-2.911,6.503-6.503,6.503
						c-3.591,0-6.503-2.911-6.503-6.503C428.378,222.954,431.289,220.043,434.881,220.043z"/>
					</g>
				</g>
				<g>
					<g>
						<path style="fill:#FFFFFF;" d="M1485.119,246.951c3.592,0,6.503,2.911,6.503,6.503c0,3.591-2.911,6.503-6.503,6.503
						c-3.591,0-6.503-2.912-6.503-6.503C1478.616,249.863,1481.528,246.951,1485.119,246.951z"/>
						<path style="fill:#FFFFFF;" d="M1459.545,246.951c3.592,0,6.503,2.911,6.503,6.503c0,3.591-2.911,6.503-6.503,6.503
						c-3.591,0-6.503-2.912-6.503-6.503C1453.042,249.863,1455.954,246.951,1459.545,246.951z"/>
						<path style="fill:#FFFFFF;" d="M1433.971,246.951c3.591,0,6.503,2.911,6.503,6.503c0,3.591-2.911,6.503-6.503,6.503
						c-3.592,0-6.503-2.912-6.503-6.503C1427.468,249.863,1430.379,246.951,1433.971,246.951z"/>
						<path style="fill:#FFFFFF;" d="M1408.397,246.951c3.591,0,6.503,2.911,6.503,6.503c0,3.591-2.911,6.503-6.503,6.503
						c-3.592,0-6.503-2.912-6.503-6.503C1401.894,249.863,1404.805,246.951,1408.397,246.951z"/>
						<path style="fill:#FFFFFF;" d="M1514.42,220.043c3.592,0,6.503,2.911,6.503,6.503c0,3.592-2.911,6.503-6.503,6.503
						c-3.591,0-6.503-2.911-6.503-6.503C1507.917,222.954,1510.829,220.043,1514.42,220.043z"/>
						<path style="fill:#FFFFFF;" d="M1488.846,220.043c3.592,0,6.503,2.911,6.503,6.503c0,3.592-2.911,6.503-6.503,6.503
						c-3.591,0-6.503-2.911-6.503-6.503C1482.343,222.954,1485.255,220.043,1488.846,220.043z"/>
						<path style="fill:#FFFFFF;" d="M1463.272,220.043c3.591,0,6.503,2.911,6.503,6.503c0,3.592-2.911,6.503-6.503,6.503
						c-3.592,0-6.503-2.911-6.503-6.503C1456.769,222.954,1459.68,220.043,1463.272,220.043z"/>
						<path style="fill:#FFFFFF;" d="M1437.698,220.043c3.591,0,6.503,2.911,6.503,6.503c0,3.592-2.911,6.503-6.503,6.503
						c-3.592,0-6.503-2.911-6.503-6.503C1431.195,222.954,1434.106,220.043,1437.698,220.043z"/>
						<path style="fill:#FFFFFF;" d="M1382.823,246.951c3.592,0,6.503,2.911,6.503,6.503c0,3.591-2.911,6.503-6.503,6.503
						c-3.591,0-6.503-2.912-6.503-6.503C1376.32,249.863,1379.232,246.951,1382.823,246.951z"/>
						<path style="fill:#FFFFFF;" d="M1357.249,246.951c3.592,0,6.503,2.911,6.503,6.503c0,3.591-2.911,6.503-6.503,6.503
						c-3.591,0-6.503-2.912-6.503-6.503C1350.746,249.863,1353.657,246.951,1357.249,246.951z"/>
						<path style="fill:#FFFFFF;" d="M1331.675,246.951c3.591,0,6.503,2.911,6.503,6.503c0,3.591-2.911,6.503-6.503,6.503
						c-3.591,0-6.503-2.912-6.503-6.503C1325.172,249.863,1328.083,246.951,1331.675,246.951z"/>
						<path style="fill:#FFFFFF;" d="M1306.1,246.951c3.591,0,6.503,2.911,6.503,6.503c0,3.591-2.911,6.503-6.503,6.503
						c-3.591,0-6.503-2.912-6.503-6.503C1299.598,249.863,1302.509,246.951,1306.1,246.951z"/>
						<path style="fill:#FFFFFF;" d="M1412.124,220.043c3.591,0,6.503,2.911,6.503,6.503c0,3.592-2.911,6.503-6.503,6.503
						s-6.503-2.911-6.503-6.503C1405.621,222.954,1408.532,220.043,1412.124,220.043z"/>
						<path style="fill:#FFFFFF;" d="M1386.55,220.043c3.591,0,6.503,2.911,6.503,6.503c0,3.592-2.911,6.503-6.503,6.503
						c-3.591,0-6.503-2.911-6.503-6.503C1380.047,222.954,1382.958,220.043,1386.55,220.043z"/>
						<path style="fill:#FFFFFF;" d="M1360.975,220.043c3.591,0,6.503,2.911,6.503,6.503c0,3.592-2.911,6.503-6.503,6.503
						c-3.591,0-6.503-2.911-6.503-6.503C1354.473,222.954,1357.384,220.043,1360.975,220.043z"/>
						<path style="fill:#FFFFFF;" d="M1335.401,220.043c3.592,0,6.503,2.911,6.503,6.503c0,3.592-2.911,6.503-6.503,6.503
						c-3.591,0-6.503-2.911-6.503-6.503C1328.899,222.954,1331.81,220.043,1335.401,220.043z"/>
					</g>
				</g>
			</g>
			<g style="clip-path:url(#SVGID_00000103947251699505255930000007253247258946677671_);">
				<g>
					<g>
						<g>
							<path style="fill:#980E10;" d="M1381.398,64.158c0,0.043-0.006,0.084-0.006,0.127c0,19.319,15.661,34.981,34.981,34.981
							c19.319,0,34.981-15.662,34.981-34.981c0-0.043-0.006-0.084-0.006-0.127H1381.398z"/>
						</g>
						<g>
							<path style="fill:#980E10;" d="M1381.398,115.02c0,0.043-0.006,0.084-0.006,0.127c0,19.319,15.661,34.981,34.981,34.981
							c19.319,0,34.981-15.662,34.981-34.981c0-0.043-0.006-0.084-0.006-0.127H1381.398z"/>
						</g>
					</g>
				</g>
				<g>
					<g>
						<g>
							<path style="fill:#980E10;" d="M475.392,337.253c0,0.043-0.007,0.084-0.007,0.127c0,19.319,15.661,34.981,34.981,34.981
							c19.319,0,34.981-15.661,34.981-34.981c0-0.043-0.006-0.084-0.006-0.127H475.392z"/>
						</g>
						<g>
							<path style="fill:#980E10;" d="M475.392,388.114c0,0.043-0.007,0.084-0.007,0.127c0,19.319,15.661,34.981,34.981,34.981
							c19.319,0,34.981-15.662,34.981-34.981c0-0.043-0.006-0.084-0.006-0.127H475.392z"/>
						</g>
					</g>
				</g>
			</g>
		</g>
		<g>
			<g>
				<polyline style="fill:none;stroke:#980E10;stroke-width:4.8319;stroke-linecap:round;stroke-linejoin:round;stroke-miterlimit:10;" points="
				1136.382,175.557 1190.882,175.557 1190.882,324.907 1154.693,324.907 			"/>
				<polyline style="fill:none;stroke:#980E10;stroke-width:4.8319;stroke-linecap:round;stroke-linejoin:round;stroke-miterlimit:10;" points="
				762.512,175.557 729.118,175.557 729.118,324.907 769.647,324.907 			"/>
			</g>
		</g>
	</g>
	<g id="TEXTS">
		<text transform="matrix(1 0 0 1 770.4683 212.8032)" style="fill:none;stroke:#FFFFFF;stroke-width:3;stroke-miterlimit:10; font-family:'Montserrat-Black'; font-size:100.3369px;">BLACK</text>
		<text transform="matrix(1 0 0 1 786.2778 341.2354)" style="fill:none;stroke:#FFFFFF;stroke-miterlimit:10; font-family:'Montserrat-BlackItalic'; font-size:41.6544px;">SALE REVIEWS</text>
		<g>
			<text transform="matrix(1 0 0 1 770.9976 292.8955)" style="fill:#980E10; font-family:'Montserrat-Black'; font-size:90.9766px;">FRIDAY</text>
		</g>
	</g>
</svg>