<?xml version="1.0" encoding="utf-8"?>
<!-- Generator: Adobe Illustrator 27.5.0, SVG Export Plug-In . SVG Version: 6.00 Build 0)  -->
<svg version="1.1" id="Layer_1" xmlns="http://www.w3.org/2000/svg" xmlns:xlink="http://www.w3.org/1999/xlink" x="0px" y="0px"
	 viewBox="0 0 900 900" style="enable-background:new 0 0 900 900;" xml:space="preserve">
<g>
	<path style="fill:#FFB287;" d="M567.526,383.707c1.537,3.408,6.309,6.306,16.363,1.023c10.055-5.283-6.476-11.611-6.476-11.611
		L567.526,383.707z"/>
	<g>
		<g>
			<path style="fill:#FFB287;" d="M509.974,405.89c-5.172,0-8.624-1.508-11.424-3.872c-7.974-6.729-11.747-14.912-24.248-42.025
				c-7.261-15.747-17.205-37.315-32.717-69.143c-2.722-5.584-0.401-12.317,5.183-15.039c5.584-2.72,12.317-0.401,15.039,5.183
				c15.618,32.045,25.621,53.739,32.924,69.58c9.072,19.677,13.152,28.525,16.826,32.755c8.985-1.001,38.235-14.033,71.26-33.661
				c5.34-3.174,12.242-1.417,15.416,3.922c3.174,5.34,1.417,12.242-3.922,15.415c-0.753,0.447-18.652,11.064-38.184,20.769
				C532.386,401.573,518.721,405.89,509.974,405.89z"/>
		</g>
		<g>
			<path style="fill:#FFB287;" d="M278.179,636.825c-6.612,0-13.413-1.119-20.768-2.528c-26.865-5.148-56.603-15.578-74.156-23.629
				c-7.7-3.531-11.078-12.636-7.546-20.336c3.532-7.701,12.637-11.078,20.335-7.546c15.876,7.282,42.792,16.718,67.14,21.384
				c14.561,2.79,18.678,2.422,22.978-0.015c7.052-3.994,16.882-14.972,33.169-33.158l1.759-1.964
				c5.652-6.31,15.349-6.843,21.658-1.191c6.31,5.652,6.843,15.349,1.191,21.658l-1.756,1.961
				c-19.005,21.222-29.474,32.912-40.903,39.385C293.454,635.28,285.947,636.825,278.179,636.825z"/>
		</g>
		<path style="fill:#BF3030;" d="M355.252,475.309c-5.543,0-10.078,4.535-10.078,10.078v50.835c0,5.543,4.428,9.097,9.839,7.898
			l85.311-7.51c9.902,0,30.318-26.314,30.318-52.512c0,0-4.656-8.789-10.199-8.789H355.252z"/>
		<path style="fill:#BF3030;" d="M330.85,546.674l1.359-1.307c19.182-19.418,13.246-19.173,13.246-69.435
			c0-17.23,58.128-21.673,75.315-20.455c17.187,1.218,34.115-18.511,32.897-1.324c-4.635,65.427-40.372,99.798-78.207,136.186
			l-1.354,1.302c-6.627,6.374-15.34,9.237-23.842,8.635c-7.429-0.526-14.698-3.7-20.268-9.49
			C318.05,578.368,318.433,558.619,330.85,546.674z"/>
		<path style="fill:#D33939;" d="M445.069,484.098c0,7.241-1.365,20.776-10.524,30.491c-9.159,9.715-30.121-15.245-30.121-15.245
			l7.669-15.254L445.069,484.098z"/>
		<path style="fill:#D33939;" d="M345.2,477.605v7.781c0,1.585,0,3.139,0.01,4.663c0.01,4.53,0.051-9.633,0.256-5.717
			c0.941,18.947,1.963,25.499,25.701,44.062c3.045,2.381,7.203,6.534,11.57,10.338c3.691,3.19,8.129,7.72,14.284,13.528
			l17.035-27.271c0,0,34.633-7.035,17.659-25.164c-2.853-3.047-5.634-5.777-8.364-8.211c-3.323-2.955-6.565-5.46-9.734-7.516v-0.01
			c-9.745-6.309-18.865-8.405-27.853-6.483c-4.806,1.033-10.961,1.37-17.025,1.36C356.775,478.955,345.2,477.605,345.2,477.605z"/>
		<g>
			<g>
				<g>
					<path style="fill:#FFE14E;" d="M305.189,484.098h165.454V305.229c0-24.622-18.688-42.946-36.674-43.089h-51.017
						c-5.992,0-11.023,0.45-15.236,1.442c-0.746,0.174-1.473,0.368-2.168,0.583c-14.326,4.243-18.119,15.696-18.119,37.915v97.63
						C347.429,453.238,305.189,484.098,305.189,484.098z"/>
					<g>
						<path style="fill:#FFB287;stroke:#FFFFFF;stroke-width:6.1351;stroke-miterlimit:10;" d="M381.844,262.141h14.827h11.248
							h14.263c2.493,0.084,35.528,4.179,35.528,37.727c0,15.919,0,28.714-21.168,28.714h-4.205
							c-27.658,0-27.218-20.185-29.269-33.645c-3.33-21.855-8.946-27.825-14.494-30.773
							C383.59,261.516,381.844,262.141,381.844,262.141z"/>
						<path style="fill:#FFB287;" d="M385.157,262.137h-0.36C384.797,262.137,384.928,262.132,385.157,262.137z"/>
					</g>
				</g>
			</g>
		</g>
		<g>
			<path style="fill:#D33939;" d="M476.399,569.56c-7.505,11.094-19.213,21.34-23.477,21.586c-8.221,0.47-8.753,5.818-15.246-0.246
				c-1.064-1.002-10.021-10.113-11.125-11.145c-16.36-15.194-28.303-26.32-35.481-33.068c-3.231-3.037-5.266-4.97-6.483-6.146
				c-0.838-0.797-1.401-1.349-1.738-1.697c-12.107-12.209-12.618-30.849-1.206-43.344c10.01-10.972,29.08-15.225,44.674-1.513
				c0.644,0.562,1.278,1.135,1.278,1.135c1.115,1.002,2.137,2.065,3.078,3.18c2.27,2.147,5.931,5.593,11.831,11.104
				c6.115,5.706,14.632,13.63,26.483,24.643c1.166,1.074,10.082,10.644,11.197,11.687
				C485.816,551.001,482.493,560.562,476.399,569.56z"/>
			<path style="fill:#F23D3D;" d="M476.399,569.56l-14.581,1.708l-8.088-12.24c-9.755-8.139-40.502-36.371-45.84-42.199
				c-5.327-5.818,8.957-28.303,26.698-13.283c2.219,1.882,4.908,3.845,7.914,5.859c6.115,5.706,14.632,13.63,26.483,24.643
				c1.166,1.074,10.082,10.644,11.197,11.687C485.816,551.001,482.493,560.562,476.399,569.56z"/>
		</g>
		<path style="fill:#FFB287;stroke:#FFFFFF;stroke-width:6.1351;stroke-miterlimit:10;" d="M350.308,305.015c0,0,0,9.059,0,19.401
			c0,14.471,5.877,22.653,20.158,22.653c29.142,0,23.989-41.074,19.224-60.042c-4.714-18.794-17.045-24.888-21.974-23.446
			c-10.317,2.393-15.737,7.945-18.293,17.751C347.971,286.844,350.308,296.631,350.308,305.015z"/>
		<path style="opacity:0.6;fill:#E5785C;" d="M347.429,302.079v10.818c0,0.45,0,41.803,0.01,42.243
			c29.633,0,25.975-83.974,25.975-83.974l-6.185-0.064C352.904,275.346,347.429,279.86,347.429,302.079z"/>
		<path style="fill:#AA2929;" d="M483.598,552.535c0.215,5.839-3.18,14.05-9.356,22.066c-1.145,1.493-2.393,2.986-3.732,4.438
			c-0.01,0.01-0.02,0.021-0.031,0.031c-11.636,12.72-25.726,18.753-31.493,13.497c-5.716-5.235-1.043-19.663,10.44-32.332
			c0.071-0.082,0.143-0.174,0.225-0.256c1.411-1.534,2.853-2.976,4.315-4.305c7.423-6.8,15.297-10.859,21.094-11.084
			c1.197-0.051,2.301,0.061,3.303,0.358c1.074,0.297,2.025,0.808,2.812,1.523c0.777,0.716,1.37,1.605,1.769,2.638
			C483.342,550.122,483.557,551.277,483.598,552.535z"/>
		<g>
			<path style="fill:#FFB287;" d="M251.869,446.029c-0.821,0-1.655-0.09-2.49-0.279c-6.059-1.369-9.861-7.391-8.492-13.45
				c0.059-0.259,5.929-26.167,13.318-52.78c14.702-52.948,21.932-61.329,27.554-65.028c10.268-6.755,31.035-18.617,46.647-27.378
				c10.332-5.798,18.511-10.296,22.466-12.461c2.957-1.618,5.374-2.93,7.055-3.831c0.89-0.477,1.586-0.846,2.061-1.092
				c7.497-3.881,13.04,0.236,15.133,3.283l6.243,9.085l-8.986,6.451c-0.689,0.494-1.415,0.899-2.163,1.217
				c-5.72,2.983-57.614,31.471-75.584,43.186c-5.458,6.506-19.025,47.768-31.803,104.306
				C261.648,442.483,257.009,446.029,251.869,446.029z"/>
		</g>
		<g>
			<path style="fill:#FFB287;" d="M565.317,706.619c-1.912-7.71-7.076-33.958-11.636-57.108c-5.245-26.616-7.873-34.653-9.499-39.06
				c-3.435-9.336-18.508-22.577-61.239-61.341c-1.493-1.36-3.016-2.74-4.581-4.162c-1.002-0.297-2.106-0.409-3.303-0.358
				c-5.798,0.225-13.671,4.284-21.094,11.084c-1.462,1.329-2.904,2.771-4.315,4.305c-0.082,0.082-0.154,0.174-0.225,0.256
				c0.971,0.797,2.383,1.994,4.54,3.947c3.65,3.303,7.086,6.401,10.307,9.305c2.157,1.943,4.233,3.804,6.206,5.583
				c30.901,27.7,40.206,35.216,41.995,38.334c1.687,5.051,8.017,19.377,11.105,38.038c4.11,24.776,9.877,50.114,11.963,58.56
				c1.728,6.984,7.986,11.646,14.878,11.646c1.217,0,2.454-0.143,3.691-0.45C562.342,723.163,567.352,714.85,565.317,706.619z"/>
		</g>
		<path style="fill:#EAA93F;" d="M305.189,484.098h103.786c-19.97,0-34.919-3.425-63.805-11.115c-2.883-0.767-5.91-1.575-9.09-2.434
			C311.968,464.067,303.277,472.155,305.189,484.098z"/>
		<g>
			<g>
				<path style="fill:#F6EEE3;" d="M532.989,701.946c0,0,4.456,24.232,7.055,38.921c1.262,7.146,7.213,12.529,14.043,13.294
					c1.168,0.131,2.344,0.124,3.541-0.02c8.229-1.034,16.741-7.14,15.256-15.504c-2.779-15.68-7.084-30.901-10.715-46.341
					L532.989,701.946z"/>
			</g>
			<path style="fill:#D94647;" d="M535.55,748.34c0.049,0.352,0.103,0.636,0.132,0.861c0.876,6.132,2.282,12.684,3.92,18.291
				c0.604,2.079,1.229,4.022,1.878,5.773c2.031,5.512,4.168,9.095,5.895,8.622c1.946,2.299,93.337-32.618,97.261-34.051
				c3.924-1.433,6.026-6.164,3.818-12.972c-0.165-0.504-0.346-0.982-0.543-1.42c-0.71-1.661-1.62-2.942-2.672-3.919
				c-4.735-4.373-12.323-2.448-18.142-0.742c-1.391,0.399-2.686,0.809-3.822,1.098c-3.002,0.773-5.661,1.086-8.147,1.044
				c-1.63-0.03-3.183-0.204-4.688-0.483l-0.014-0.002c-1.834-0.344-3.618-0.835-5.423-1.44c-2.432-0.785-4.909-1.743-7.635-2.7
				c-0.963-0.344-1.966-0.692-3.012-1.031c-0.354-0.109-0.692-0.23-1.031-0.352c-1.452-0.495-2.764-1.031-3.964-1.581
				c-1.928-0.882-3.577-1.815-5.005-2.752l-0.014-0.002c-0.347-0.233-0.68-0.464-1.012-0.696c-1.011-0.723-1.924-1.45-2.771-2.141
				c-3.991-3.332-6.458-6.216-11.611-6.793c-6.075-0.667-15.759,2.896-17.031,9.12c-0.078,0.407-0.128,0.818-0.138,1.247
				c-0.047,2.339,1.507,6.98,2.005,11.197c0.38,3.122,0.178,6.012-1.666,7.595c-6.214,5.324-9.889,1.528-11.978-3.172
				c0.001-0.014,0.001-0.014,0.002-0.028c-1.806-4.086-2.4-8.813-2.4-8.813C534.405,729.361,534.192,738.187,535.55,748.34z"/>
			<path style="fill:#F7BFC2;" d="M642.85,727.922c-6.613-3.942-16.735,0.411-21.801,1.875c-8.432,2.437-9.802,4.399-11.337,8.791
				C609.408,739.459,643.662,728.407,642.85,727.922z"/>
			<path style="fill:#F7BFC2;" d="M541.48,773.265c2.031,5.512,4.168,9.095,5.895,8.622c1.946,2.299,93.337-32.618,97.261-34.051
				c3.924-1.433,6.026-6.164,3.818-12.972c-0.165-0.504-0.346-0.982-0.543-1.42C626.418,740.982,541.48,773.265,541.48,773.265z"/>
		</g>
		<path style="fill:#FFFFFF;" d="M570.704,727.351c4.005-0.911,8.089-2.229,12.18-3.435c-4.074,2.651-7.237,5.82-5.858,8.61
			c1.529,3.098,5.857,0.365,7.666-0.598c2.279-1.188,5.339-2.26,8.202-3.52c-1.179,2.809-1.754,5.935-1.917,9.12
			c-0.067,1.213,1.384,1.972,2.295,1.242c5.506-4.53,10.35-6.845,17.153-8.33c-1.834-0.344-3.618-0.835-5.423-1.44
			c-3.971,1.289-7.429,3.052-10.93,5.587c0.474-3.054,1.449-5.927,3.295-8.286c-0.963-0.344-1.966-0.692-3.012-1.031
			c-0.354-0.109-0.692-0.23-1.031-0.352c-2.381,1.051-5.083,1.886-6.793,2.818c-1.441,0.796-6.02,2.572-6.331,2.939
			c2.397-2.825,5.628-5.473,9.161-7.339c-1.928-0.882-3.577-1.815-5.005-2.752l-0.014-0.002c-3.512,0.994-7.032,2.125-10.5,3.083
			c2.398-2.104,5.979-3.09,9.488-3.779l-2.771-2.141c-4.851,1.205-9.411,3.135-11.449,7.72
			C568.697,726.391,569.738,727.561,570.704,727.351z"/>
		<g>
			<g>
				<path style="fill:#D94647;" d="M201.227,578.05c-0.291-0.177-0.553-0.271-0.745-0.373c-5.269-2.706-11.159-5.231-16.44-7.052
					c-1.956-0.678-3.817-1.264-5.542-1.726c-5.424-1.463-9.401-1.775-9.987-0.166c-2.87,0.248-24.934,87.711-25.985,91.565
					c-1.05,3.854,1.479,8.109,8.012,10.15c0.485,0.149,0.958,0.272,1.408,0.361c1.688,0.364,3.191,0.362,4.536,0.081
					c6.029-1.278,8.722-8.263,10.607-13.747c0.458-1.306,0.854-2.543,1.256-3.589c1.056-2.77,2.281-5.018,3.689-6.934
					c0.924-1.255,1.918-2.371,2.969-3.391l0.009-0.01c1.282-1.241,2.652-2.362,4.121-3.436c1.957-1.463,4.073-2.867,6.327-4.466
					c0.8-0.561,1.627-1.152,2.47-1.781c0.28-0.215,0.562-0.413,0.844-0.61c1.189-0.859,2.332-1.587,3.425-2.219
					c1.754-1.017,3.394-1.788,4.914-2.384l0.009-0.01c0.373-0.142,0.738-0.273,1.103-0.405c1.123-0.389,2.195-0.7,3.202-0.979
					c4.806-1.272,7.213,1.55,10.512-2.152c3.878-4.372,6.451-13.898,2.297-18.331c-0.275-0.286-0.567-0.552-0.896-0.797
					c-1.799-1.33,3.566,1.942,0,0c-2.646-1.429,2.804-6.609,3.02-4.295c2.066,22.369-6.312-2.502-6.301-2.494
					c4.186,0.85-1.41-10.326-1.41-10.326C209.508,585.235,208.826,582.672,201.227,578.05z"/>
				<path style="fill:#F6EEE3;" d="M230.319,595.614l-9.274,29.367c-3.834-1.227-6.37-1.963-8.292-2.495
					c-2.526-0.695-3.967-1.043-5.87-1.728c-2.106-0.746-4.775-1.922-10.112-4.438c-7.342-3.466,3.538-32.036,9.98-29.449
					c3.824,1.544,7.423,2.924,10.593,4.111c2.127,0.798,4.06,1.503,5.747,2.117C227.559,594.704,230.319,595.614,230.319,595.614z"
					/>
				<path style="fill:#F7BFC2;" d="M178.501,568.9c-5.424-1.463-9.401-1.775-9.987-0.166c-2.87,0.248-24.934,87.711-25.985,91.565
					c-1.05,3.854,1.479,8.109,8.012,10.15c0.485,0.149,0.958,0.272,1.408,0.361C157.947,649.872,178.501,568.9,178.501,568.9z"/>
			</g>
		</g>
		<g>
			<path style="fill:#D2324B;" d="M474.323,142.516v8.139c0,5.542,0,11.166,0,11.166c0,3.211-0.45,5.113-4.284,5.113
				c-3.241,0-2.239-13.466-6.524-13.466h-33.559c-16.923,0-57.977,3.936-57.015,18.497l-0.409-6.206l-0.501-7.648l-0.246-3.743
				l-0.184-2.863c-0.961-14.561,41.432-17.965,58.355-17.965h33.559c2.24,0,4.274,0.153,5.951,0.716
				C472.442,135.235,474.323,137.505,474.323,142.516z"/>
			<path style="fill:#AF1E3A;" d="M471.757,161.585l-0.337,5.235l-0.992,15.215c0.951-14.561-40.103-18.487-57.016-18.487h-33.569
				c-4.284,0-3.282,13.456-6.524,13.456c-3.834,0-4.284-1.902-4.284-5.113c0,0,0-3.211,0-7.168v-12.137
				c0-2.014,0.307-3.589,0.869-4.816c1.125-2.464,3.282-3.517,6.043-3.927c1.197-0.174,2.505-0.235,3.896-0.235h33.569
				c2.219,0,4.888,0.061,7.833,0.194c7.802,0.358,17.608,1.258,26.493,3.017c6.974,1.38,13.385,3.292,17.822,5.89
				C469.579,155.062,471.992,157.986,471.757,161.585z"/>
			<g>
				<path style="fill:#8E3925;" d="M371.451,180.108c1.958,27.262,8.696,34.626,19.35,34.626c8.74,0,15.981-12.064,15.668-14.885
					c-0.313-2.82-3.447-19.428-5.954-20.368C398.008,178.541,371.451,180.108,371.451,180.108z"/>
				<path style="fill:#8E3925;" d="M396.394,208.929c-1.732-3.477-2.797,7.571-2.822,6.25c-0.444-23.208-20.32-5.929-21.887-31.624
					c-1.336-21.91-1.524-22.101-2.115-32.746c-1.175-21.152,9.036-41.903,58.337-40.369c25.156,0.783,29.605,7.09,35.279,19.907
					c10.569,23.873,2.037,54.539,2.037,54.539L396.394,208.929z"/>
				<path style="fill:#FFB287;" d="M432.931,266.829c0,0-1.632,8.929-16.18,8.929c-14.548,0-21.155-11.077-21.155-11.077
					l9.333-42.158l38.274-2.095L432.931,266.829z"/>
				<path style="fill:#E5785C;" d="M436.108,252.476c-1.085,4.9-31.613,0.759-37.709,10.318c-2.283,3.579-2.36-0.116-2.803,1.887
					c-1.441,6.509,11.416-51.566,11.416-51.566l37.754,0.256L436.108,252.476z"/>
				<path style="fill:#E5785C;" d="M469.747,198.923c0,8.708-7.588,28.777-12.298,34.781c-2.009,2.561-3.918,8.717-10.321,10.564
					c-6.916,1.995-9.983,3.273-10.841,7.4c-0.692,3.33-6.372-4.712-8.81-4.711c-28.982,0-43.307-31.218-43.307-52.486l8.931-27.9
					c0-23.283,15.452-40.02,37.943-39.848c22.49,0.172,40.599,15.507,40.599,38.79L469.747,198.923z"/>
				<path style="fill:#FFB287;" d="M472.232,164.611l-0.302,9.248l-0.804,25.08c-0.854,24.427-6.333,46.995-35.986,46.743
					c-29.604-0.201-36.741-28.817-36.741-59.258l1.407-20.205c0-0.854,0-1.709,0.05-2.513c0.604-30.307,12.917-41.415,34.679-41.415
					C464.241,122.292,473.036,141.341,472.232,164.611z"/>
				<g>
					<path style="fill:#E5785C;" d="M445.853,204.553c4.221,0.006,7.812-2.379,7.626-4.811c-0.068-0.886-0.951-1.953-2.606-1.174
						c-0.759,0.357-2.811,0.776-4.992,0.762c-2.181-0.014-3.363-0.452-4.595-0.822c-2.685-0.806-3.532,0.251-3.6,1.135
						C437.499,202.072,441.631,204.506,445.853,204.553z"/>
				</g>
				<path style="fill:#E5785C;" d="M398.84,184.296c0.615,8.677-3.796,16.131-9.854,16.648c-6.057,0.517-11.467-6.098-12.082-14.775
					c-0.615-8.677,2.762-15.433,8.76-16.504C391.663,168.594,398.224,175.619,398.84,184.296z"/>
				<path style="fill:#422B27;" d="M424.48,182.379c0,2.062,1.685,3.746,3.763,3.762c2.078,0.016,3.763-1.643,3.763-3.704
					c0-2.062-1.685-3.746-3.763-3.762C426.165,178.659,424.48,180.317,424.48,182.379z"/>
				<path style="fill:#422B27;" d="M457.711,182.956c0,2.062,1.685,3.746,3.763,3.762c2.078,0.016,3.763-1.642,3.763-3.704
					c0-2.062-1.685-3.746-3.763-3.762C459.396,179.236,457.711,180.895,457.711,182.956z"/>
				<g>
					<path style="fill:#8E3925;" d="M417.942,172.68c-1.388,0-2.527-1.111-2.555-2.505c-0.028-1.412,1.093-2.579,2.504-2.607
						l16.934-0.34c1.418-0.021,2.579,1.092,2.607,2.504c0.028,1.412-1.093,2.579-2.504,2.607l-16.934,0.34
						C417.977,172.68,417.96,172.68,417.942,172.68z"/>
				</g>
				<g>
					<path style="fill:#8E3925;" d="M470.479,174.023c-0.061,0-0.124-0.002-0.186-0.007l-14.581-1.052
						c-1.408-0.102-2.467-1.326-2.366-2.734c0.102-1.407,1.316-2.463,2.734-2.366l14.581,1.052c1.408,0.101,2.467,1.326,2.366,2.734
						C472.929,172.996,471.807,174.023,470.479,174.023z"/>
				</g>
				<path style="fill:#8E3925;" d="M389.72,163.054c0-13.187,5.906-24.965,15.112-32.673c-4.438-5.513-6.048-13.755-5.101-14.512
					c1.567-1.253,26.158-8.306,49.626-3.28c18.544,3.971,20.154,16.664,17.344,23.403c0.035,0.078,0.074,0.151,0.109,0.23
					c-0.045-0.048-0.095-0.099-0.142-0.148c-2.54,5.99-8.181,9.878-13.195,9.878c-20.995,0-20.549-12.327-36.193-11.124
					c-6.111,0.47-15.394,4.348-15.394,19.624c0,16.569-2.71,33.847-2.816,33.854c-4.914,0.318-4.979-2.871-4.979-2.871
					c0-8.774-1.314-13.683-6.894-16.295L389.72,163.054z"/>
				<path style="fill:#E5785C;" d="M472.278,144.561c0,5.736,0,19.929,0,19.929c0-7.832-4.622-8.977-10.808-8.977h-33.559
					c-6.401,0-16.258,0.562-25.982,2.055c-15.992,2.444-31.626,7.393-31.033,16.442l-1.34-20.461
					c-0.614-9.274,16.37-14.029,33.16-16.248c9.561-1.268,19.06-1.718,25.195-1.718h33.559
					C467.657,135.583,472.278,136.718,472.278,144.561z"/>
			</g>
			<g>
				<path style="fill:#E5785C;" d="M442.319,223.035c-0.01,0-0.019,0-0.028,0c-5.773-0.002-9.838-0.805-12.081-2.384
					c-0.923-0.65-1.145-1.926-0.495-2.85c0.651-0.922,1.926-1.145,2.85-0.495c1.477,1.04,5.022,1.637,9.729,1.639
					c0.008,0,0.017,0,0.026,0c2.538,0,6.135-0.171,8.199-1.628c0.923-0.652,2.199-0.431,2.85,0.492
					c0.651,0.922,0.431,2.199-0.492,2.85C449.896,222.762,445.673,223.035,442.319,223.035z"/>
			</g>
			<path style="fill:#8E3925;" d="M468.477,136.769c4.201-3.749,13.863-18.064,0-34.425c0,0-19.314,19.786-22.894,19.948
				c-3.58,0.162,6.114,14.477,6.114,14.477H468.477z"/>
			<path style="fill:#8E3925;" d="M461.326,137.275c3.288-4.571,10.369-24.694-6.713-37.657c0,0-14.997,19.257-42.679,11.186
				c-3.441-1.003,33.012,30.111,33.012,30.111L461.326,137.275z"/>
			<path style="fill:#D2324B;" d="M472.278,141.493c0,5.736,0,19.929,0,19.929c0-7.832-4.622-8.977-10.808-8.977h-33.559
				c-6.401,0-16.258,0.562-25.982,2.055c-15.992,2.444-31.626,7.393-31.033,16.442l-1.34-20.461
				c-0.614-9.274,16.37-14.029,33.16-16.248c9.561-1.268,19.06-1.718,25.195-1.718h33.559
				C467.657,132.515,472.278,133.65,472.278,141.493z"/>
		</g>
		<path style="fill:#E5785C;" d="M398.399,259.301c-24.48,0-32.293,4.039-36.494,5.889c-10.481,4.615-14.475,11.238-14.475,11.238
			s3.218-1.519,5.809-2.993c18.882-10.744,38.15-10.056,44.285-5.401c0,0,1.245-9.617,12.655-10.987
			c11.41-1.37,4.217-10.23,2.939-9.975c-1.278,0.256-4.729,2.301-4.729,2.301L398.399,259.301z"/>
		<path style="fill:#D94647;" d="M205.614,583.419c3.343,2.577,3.288,2.305,3.176,4.494c-0.131,2.553-4.343,2.343-16.783-3.281
			c-12.441-5.624-12.192-9.543-12.192-9.543L205.614,583.419z"/>
		<path style="fill:#F6EEE3;" d="M212.322,611.899c0.636,4.772,8.673,12.993-4.889,9.053c-13.562-3.94-22.077-8.828-19.271-18.17
			c2.806-9.342,6.849-17.201,14.288-14.083C209.888,591.818,212.322,611.899,212.322,611.899z"/>
		<path style="fill:#D33939;" d="M345.169,472.983v17.066h0.041l63.764-5.951c-13.732,0-25.082-1.615-40.236-5.133
			C361.857,477.37,354.188,475.386,345.169,472.983z"/>
		<path style="fill:#AA2929;" d="M413.616,484.088v0.01c-9.438,0-28.252,2.321-43.764,6.299c-2.035,0.522-4.008,1.063-5.9,1.646
			c-9.632,2.925-17.056,6.554-18.487,10.695c-0.205-3.916-0.246-8.16-0.256-12.689h-0.041v-17.066
			c6.503,1.738,12.311,3.251,17.618,4.55c2.055,0.511,4.039,0.992,5.951,1.431c0.061,0.01,0.123,0.021,0.184,0.041
			C384.454,482.125,399.874,484.088,413.616,484.088z"/>
		<polygon style="fill:#BF3030;" points="441.838,502.738 419.762,490.049 440.883,507.885 449.415,507.885 		"/>
		<path style="fill:#EAA93F;" d="M397.266,429.892c-7.655,0,73.355,0,73.355,0v-74.855l-67.219,11.248
			C403.401,366.285,404.921,429.892,397.266,429.892z"/>
		<path style="fill:#F2E7E1;" d="M470.613,365.262c0,0,1.939,48.609,10.215,48.609c-23.182,0-61.498,0-67.211,0
			c-8.276,0-10.215-48.609-10.215-48.609H470.613z"/>
		<rect x="403.401" y="355.036" style="fill:#1DA2D6;" width="67.219" height="10.774"/>
		<g style="opacity:0.7;">
			<path style="fill:#8271A8;" d="M118.831,805.333c0-4.075,4.5-7.409,10-7.409H594.58c5.5,0,10,3.334,10,7.409
				c0,4.075-4.5,7.409-10,7.409H128.831C123.331,812.742,118.831,809.408,118.831,805.333z"/>
		</g>
		<g>
			<path style="fill:#FFFFFF;" d="M445.171,565.409c-1.278,1.728-2.434,3.466-3.446,5.184
				c-14.295-13.344-39.929-35.931-51.065-45.727l-1.892-1.667c-1.544-1.36-3.129-2.669-4.816-4.059
				c-8.006-6.585-16.882-13.876-20-27.097c-0.747-3.149-1.166-6.636-1.166-10.532v-3.977c2.055,0.511,4.039,0.992,5.951,1.431
				c0.061,0.01,0.123,0.021,0.184,0.041v2.505c0,3.293,0.327,6.227,0.93,8.886c2.577,11.34,10.113,17.526,17.996,24.009
				c1.646,1.36,3.354,2.761,4.98,4.192l1.892,1.657C406.612,530.735,430.764,552.014,445.171,565.409z"/>
		</g>
	</g>
	<path style="fill:#8E3925;" d="M371.451,176.793c0.235,6.762-6.061,20.645-11.163,18.941c0,0,10.242,8.772,16.545,5.238
		l-3.686-17.987L371.451,176.793z"/>
	<path style="fill:#E5785C;" d="M478.362,544.948c-7.127,6.963-11.779,17.904-14.09,28.539c-3.221-2.904-6.657-6.002-10.307-9.305
		c-2.157-1.953-3.569-3.149-4.54-3.947c0.071-0.082,0.143-0.174,0.225-0.256c1.411-1.534,2.853-2.976,4.315-4.305
		c7.423-6.8,15.297-10.859,21.094-11.084C476.256,544.539,477.36,544.651,478.362,544.948z"/>
	<path style="fill:#F2E7E1;" d="M368.922,481.511v-2.505c-0.061-0.02-0.123-0.031-0.184-0.041c-1.912-0.44-3.896-0.92-5.951-1.431
		v3.977c0,3.896,0.419,7.383,1.166,10.532c1.891-0.583,3.865-1.125,5.9-1.646C369.249,487.738,368.922,484.804,368.922,481.511z"/>
	<g>
		<path style="fill:#5D5D5D;" d="M431.48,393.28h-4.265c-0.555,0-0.994-0.13-1.315-0.39c-0.321-0.259-0.531-0.675-0.627-1.246
			c-0.082-0.484-0.085-0.909-0.011-1.272c0.074-0.363,0.157-0.744,0.249-1.142l2.129-8.695c0.171-0.727,0.384-1.242,0.639-1.544
			c0.254-0.303,0.608-0.455,1.062-0.455c0.634,0,1.212,0.351,1.733,1.052c0.521,0.7,0.903,1.769,1.146,3.205l1.148,6.774
			c0.076-0.017,0.148-0.03,0.214-0.039c0.067-0.008,0.128-0.013,0.185-0.013c0.476,0,0.873,0.173,1.192,0.52
			c0.319,0.346,0.523,0.778,0.611,1.297c0.22,1.298-0.22,1.947-1.318,1.947h-0.255l0.33,1.947c0.123,0.727,0.099,1.285-0.073,1.674
			c-0.172,0.39-0.468,0.584-0.887,0.584c-0.781,0-1.307-0.795-1.577-2.388L431.48,393.28z M430.852,389.568l-1.196-7.06l-1.642,7.06
			H430.852z"/>
		<path style="fill:#5D5D5D;" d="M440.844,385.468c0.187-0.035,0.36-0.065,0.52-0.091c0.159-0.026,0.301-0.039,0.426-0.039
			c0.464,0,0.931,0.147,1.4,0.441c0.469,0.294,0.905,0.71,1.307,1.246c0.403,0.537,0.759,1.168,1.069,1.895
			c0.31,0.727,0.537,1.515,0.68,2.362c0.149,0.883,0.179,1.722,0.087,2.518c-0.092,0.796-0.289,1.489-0.591,2.076
			c-0.303,0.589-0.699,1.056-1.19,1.402c-0.491,0.346-1.065,0.519-1.722,0.519c-0.612,0-1.207-0.165-1.783-0.493
			c-0.577-0.329-1.105-0.787-1.584-1.376c-0.479-0.588-0.893-1.289-1.24-2.103c-0.347-0.813-0.605-1.713-0.772-2.699
			c-0.223-1.315-0.235-2.755-0.036-4.322c0.199-1.565,0.622-3.249,1.268-5.048c0.418-1.142,0.789-2.016,1.111-2.621
			c0.322-0.605,0.658-0.909,1.009-0.909c0.17,0,0.346,0.052,0.528,0.156c0.182,0.103,0.348,0.247,0.497,0.428
			c0.15,0.182,0.281,0.39,0.395,0.623c0.113,0.233,0.192,0.48,0.236,0.74c0.056,0.329,0.04,0.657-0.045,0.986
			c-0.086,0.329-0.213,0.697-0.382,1.103c-0.169,0.407-0.36,0.869-0.572,1.388C441.25,384.17,441.044,384.775,440.844,385.468z
			 M440.292,391.333c0.123,0.727,0.379,1.337,0.769,1.83c0.39,0.493,0.799,0.74,1.23,0.74c0.431,0,0.757-0.247,0.979-0.74
			c0.223-0.493,0.272-1.103,0.149-1.83c-0.123-0.727-0.378-1.328-0.765-1.804c-0.386-0.476-0.794-0.714-1.225-0.714
			c-0.431,0-0.758,0.238-0.984,0.714C440.22,390.006,440.169,390.607,440.292,391.333z"/>
		<path style="fill:#5D5D5D;" d="M453.815,387.103c1.516,1.056,2.451,2.631,2.805,4.725c0.141,0.83,0.168,1.609,0.082,2.336
			c-0.087,0.727-0.277,1.359-0.571,1.895c-0.294,0.536-0.679,0.96-1.152,1.272c-0.474,0.312-1.028,0.467-1.663,0.467
			c-0.997,0-1.982-0.473-2.959-1.418c-0.583-0.567-1.055-1.178-1.415-1.831c-0.36-0.654-0.588-1.267-0.685-1.837
			c-0.103-0.606-0.074-1.09,0.085-1.454c0.16-0.363,0.42-0.545,0.783-0.545c0.272,0,0.513,0.1,0.722,0.298
			c0.209,0.2,0.442,0.489,0.699,0.87c0.168,0.259,0.334,0.515,0.495,0.766c0.162,0.251,0.326,0.467,0.492,0.649
			c0.167,0.181,0.345,0.329,0.534,0.441c0.189,0.113,0.396,0.169,0.624,0.169c0.408,0,0.715-0.225,0.922-0.675
			c0.207-0.45,0.253-1.013,0.139-1.687c-0.126-0.744-0.361-1.259-0.704-1.544c-0.343-0.286-0.815-0.497-1.416-0.636
			c-0.425-0.104-0.752-0.29-0.978-0.558c-0.227-0.268-0.391-0.706-0.494-1.311c-0.094-0.554-0.073-0.964,0.063-1.233
			c0.135-0.268,0.396-0.471,0.78-0.61c0.797-0.312,1.115-0.943,0.954-1.895c-0.083-0.484-0.238-0.87-0.468-1.155
			c-0.23-0.286-0.498-0.429-0.803-0.429c-0.272,0-0.484,0.1-0.637,0.299c-0.153,0.199-0.303,0.437-0.449,0.714
			c-0.199,0.363-0.374,0.67-0.523,0.921c-0.15,0.251-0.389,0.376-0.718,0.376c-0.295,0-0.587-0.169-0.876-0.506
			c-0.289-0.337-0.477-0.757-0.561-1.259c-0.088-0.52-0.075-1.042,0.041-1.565c0.115-0.522,0.315-0.997,0.6-1.423
			c0.284-0.427,0.642-0.775,1.072-1.045c0.43-0.27,0.912-0.405,1.444-0.405c0.521,0,1.028,0.134,1.521,0.402
			c0.493,0.268,0.936,0.627,1.329,1.077c0.393,0.45,0.733,0.982,1.018,1.596c0.285,0.614,0.486,1.268,0.604,1.96
			c0.135,0.796,0.143,1.496,0.024,2.102C454.456,386.022,454.202,386.584,453.815,387.103z"/>
	</g>
	<path style="fill:#BF3030;" d="M317.752,557.37c-0.784,0.722-1.383,1.62-1.785,2.662c-0.402,1.022-0.619,2.187-0.66,3.456
		c-0.217,5.892,3.209,14.178,9.441,22.267c1.156,1.506,2.414,3.013,3.766,4.478c0.01,0.01,0.021,0.021,0.031,0.031
		c11.742,12.836,25.961,18.924,31.78,13.62l16.746-15.098l-43.226-45.094L317.752,557.37z"/>
	<g>
		<g>
			<path style="fill:#F2E7E1;" d="M563.557,314.292c1.009,1.83,0.667,3.953-0.764,4.742l-4.264,2.352
				c-1.43,0.788-3.409-0.055-4.418-1.884l-4.616-8.372c-1.007-1.827-0.664-3.953,0.765-4.741l4.264-2.352
				c1.431-0.789,3.41,0.056,4.417,1.883L563.557,314.292z"/>
			<path style="fill:#1DA2D6;" d="M568.521,316.147c0.565,1.025,0.375,2.215-0.428,2.658l-12.587,6.941
				c-0.803,0.443-1.911-0.031-2.476-1.056l-3.926-7.119c-0.565-1.026-0.374-2.215,0.429-2.658l12.587-6.941
				c0.802-0.443,1.91,0.03,2.476,1.056L568.521,316.147z"/>
			<path style="fill:#684059;" d="M590.63,347.944l1.695,3.074c0.909,1.648,2.087,2.577,2.92,3.069
				c0.623,0.367,1.054,0.493,1.054,0.493s2.094,0.151,4.037,3.676l10.612,19.246c2.754,4.995,4.778,8.666,4.778,8.666
				c1.604,2.91,1.065,6.282-1.21,7.537l-20.45,11.277c-2.271,1.252-5.415-0.089-7.019-2.999c0,0-2.024-3.67-4.778-8.666
				l-10.612-19.246c-1.943-3.525-0.954-5.376-0.954-5.376s0.124-0.432,0.15-1.158c0.024-0.964-0.133-2.457-1.041-4.105l-1.695-3.074
				c-0.413-0.748-0.835-1.35-1.238-1.822c-1.5-1.76-2.803-1.86-2.803-1.86s-1.734-0.507-3.22-2.415
				c-0.262-0.335-0.517-0.715-0.751-1.14c-1.58-2.865-3.604-6.536-3.604-6.536c-0.115-0.209-0.227-0.495-0.339-0.838
				c-1.424-4.423-2.342-19.069-0.231-20.234l11.734-6.471c2.112-1.165,14.007,7.429,16.987,10.993
				c0.236,0.275,0.412,0.525,0.528,0.734c0,0,2.024,3.67,3.604,6.536c0.234,0.425,0.42,0.843,0.563,1.244
				c0.821,2.275,0.324,4.012,0.324,4.012s-0.611,1.155,0.077,3.364C589.934,346.517,590.218,347.196,590.63,347.944z"/>
		</g>
		<path style="fill:#826B80;" d="M584.653,330.035l-22.608,12.475c-2.127-4.519-3.233-11.974-2.51-16.598l11.191-6.174
			C575.093,321.804,582.403,327.346,584.653,330.035z"/>
		<path style="fill:#826B80;" d="M600.337,358.256l-24.395,13.54c-1.943-3.525-0.954-5.376-0.954-5.376s0.124-0.432,0.15-1.158
			l20.106-11.175c0.623,0.367,1.054,0.493,1.054,0.493S598.394,354.732,600.337,358.256z"/>
		<path style="fill:#4C2D42;" d="M589.349,338.549c0.821,2.275,0.324,4.012,0.324,4.012s-0.611,1.155,0.077,3.364l-22.869,12.611
			c-1.5-1.76-2.803-1.86-2.803-1.86s-1.734-0.507-3.22-2.415L589.349,338.549z"/>
	</g>
	<path style="fill:#4C2D42;" d="M579.861,347.534c1.387,1.982,3.305,4.986,1.004,8.629c-2.301,3.643-9.415,9.016-9.415,9.016
		l-2.855-3.904l2.47-7.189L579.861,347.534z"/>
	<path style="fill:#FFB287;" d="M568.718,348.28c-0.463,0.147-0.912,0.381-1.313,0.708c-1.307,1.065-2.655,2.101-3.815,3.327
		c-4.255,3.466-6.285,8.133-4.29,14.026c0.42,1.242,2.396,0.709,1.972-0.544c-0.404-1.193-0.619-2.314-0.67-3.372
		c0.333,0.344,0.728,0.628,1.163,0.808c-0.009,0.066-0.022,0.128-0.03,0.194c-0.251,2,1.226,2.96,2.797,2.913
		c-0.547,1.499-1.339,2.901-2.58,4.12c-2.209,2.17-0.04,5.277,2.36,5.209c-0.016,0.036-0.035,0.072-0.052,0.109
		c-0.187,0.413-0.088,0.8,0.131,1.09c-0.078,0.078-0.147,0.161-0.227,0.237c-0.96,0.908,0.489,2.351,1.446,1.446
		c3.366-3.183,4.892-7.569,5.59-12.143c0.03-0.113,0.066-0.22,0.094-0.334c0.426-1.724,0.238-5.159,0.785-7.737
		c1.804-1.219,3.624-2.46,4.202-4.659C577.645,348.49,572.99,345.454,568.718,348.28z"/>
	<path style="fill:#FFB287;" d="M562.246,354.906c0.471-1.832-0.54-0.842,1.344-2.592c1.884-1.75,8.824-8.145,11.75-8.401
		c2.926-0.256,5.056,1.151,4.436,5.624c-0.611,4.406-2.634,6.092-7.696,8.798c-5.062,2.705-4.554-1.725-4.554-1.725L562.246,354.906
		z"/>
	<path style="fill:#4C2D42;" d="M594.796,341.443c-5.123,1.118-11.674,1.446-11.887,6.091c-0.213,4.645,2.336,6.741,8.986,15.407
		s10.703,12.797,16.942,10.731l-12.97-23.368L594.796,341.443z"/>
	<path style="fill:#FFB287;" d="M596.544,365.524c3.397,4.482,8.937,6.634,12.311,4.783c3.374-1.851,4.012-7.448,1.417-12.438
		l-7.842-15.081c-2.595-4.99-8.753-6.893-13.686-4.231c-4.933,2.663-6.189,8.508-2.792,12.99L596.544,365.524z"/>
	<path style="fill:#FFB287;" d="M244.546,433.699c-5.605-0.465-11.382,3.599-12.838,9.031l-2.344,8.744
		c-1.456,5.432,1.489,11.892,6.544,14.356l14.822,7.223c5.055,2.464,10.217-0.006,11.471-5.488l4.992-21.832
		c1.254-5.482-2.306-10.348-7.911-10.813L244.546,433.699z"/>
	<path style="fill:#FFB287;" d="M278.144,457.182c-0.704-2.141-1.207-6.61-2.203-10.514c-0.246-1.125-0.515-2.244-0.9-3.326
		c-1.212-5.625-4.978-11.027-10.643-13.46c-1.263-0.543-7.042,1.854-5.67,2.054c1.307,0.191,0.193,1.749-0.511,3.238
		c-1.14-1.224,2.047-1.399,1.499-3.139c-0.975-3.097-4.911-2.55-5.99-0.275c-0.026-0.033-0.051-0.067-0.077-0.1
		c-0.296-0.371-0.706-0.464-1.081-0.397c-0.035-0.11-0.081-0.213-0.113-0.325c-0.391-1.329-2.429-0.663-2.039,0.662
		c1.371,4.66,4.742,8.174,8.683,11.005c0.091,0.082,0.174,0.166,0.267,0.247c1.407,1.219,6.074,1.319,8.223,3.057
		c0.117,6.017,2.47,14.901,4.992,16.36C276.682,464.641,280.031,462.927,278.144,457.182z"/>
	<path style="fill:#E5785C;" d="M265.226,429.242c-0.383,1.373-3.068,3.737-7.349,3.929c-4.282,0.192-14.399-0.135-16.744-1.534
		c-0.318-0.189,3.004-12.909,3.004-12.909s16.77,6.008,16.606,5.752C260.578,424.224,265.226,429.242,265.226,429.242z"/>
	<path style="fill:#FFB287;" d="M250.367,465.764c-1.182,4.09-0.329,4.935-1.139,6.558c-0.81,1.622-0.554,5.457,3.791,6.99
		c4.346,1.534,6.404,0.398,9.025-11.061c2.621-11.46-4.935-10.411-4.935-10.411L250.367,465.764z"/>
	<g>
		<path style="fill:#C1BFE2;" d="M247.638,428.056c-1.201-0.326-1.911-1.564-1.585-2.766l2.322-8.554
			c0.326-1.202,1.564-1.911,2.765-1.585l10.441,2.835c1.202,0.326,1.911,1.565,1.585,2.766l-2.322,8.554
			c-0.326,1.202-1.564,1.911-2.766,1.584L247.638,428.056z"/>
		<g>
			<path style="fill:#4F4351;" d="M257.935,428.987c-0.247,0-0.53-0.044-0.866-0.135l-7.528-2.044
				c-0.712-0.193-1.138-0.449-1.339-0.805c-0.198-0.352-0.202-0.844-0.01-1.55l1.605-5.912c0.317-1.168,0.624-1.523,1.315-1.523
				c0.269,0,0.608,0.057,1.039,0.174l7.528,2.044c1.454,0.395,1.744,0.901,1.35,2.356l-1.604,5.912
				C259.068,428.81,258.472,428.987,257.935,428.987z"/>
			<g>
				<path style="fill:#C1BFE2;" d="M251.112,417.273L251.112,417.273c0.246,0,0.564,0.054,0.972,0.165l7.528,2.044
					c1.32,0.358,1.528,0.721,1.17,2.042l-1.604,5.912c-0.325,1.196-0.811,1.296-1.242,1.296c-0.224,0-0.485-0.041-0.799-0.126
					l-7.528-2.044c-1.245-0.338-1.507-0.796-1.169-2.041l1.604-5.912C250.381,417.362,250.672,417.273,251.112,417.273
					L251.112,417.273z M251.112,416.762c-0.877,0-1.241,0.529-1.563,1.712l-1.605,5.912c-0.408,1.505-0.009,2.251,1.529,2.668
					l7.528,2.044c0.342,0.093,0.653,0.145,0.933,0.145c0.844,0,1.409-0.469,1.736-1.673l1.604-5.912
					c0.421-1.553,0.11-2.224-1.529-2.669l-7.528-2.044C251.776,416.824,251.414,416.762,251.112,416.762L251.112,416.762z"/>
			</g>
		</g>
		<path style="fill:#D14D2A;" d="M260.742,429.685c0,0,0.658-0.451,1.582-0.2c0.924,0.251,3.317,0.901,3.317,0.901
			s1.491,0.531,2.639-3.701l-0.025,0.09c1.149-4.233-0.406-4.527-0.406-4.527s-2.393-0.65-3.317-0.901
			c-0.924-0.251-1.264-0.973-1.264-0.973L260.742,429.685z"/>
		<path style="fill:#D14D2A;" d="M245.951,425.669c0,0-0.339-0.722-1.264-0.973c-0.924-0.251-3.317-0.901-3.317-0.901
			s-1.555-0.295-0.406-4.528l-0.024,0.09c1.149-4.232,2.639-3.7,2.639-3.7s2.393,0.65,3.317,0.901
			c0.925,0.251,1.582-0.201,1.582-0.201L245.951,425.669z"/>
	</g>
	<path style="opacity:0.7;fill:#FFFFFF;" d="M250.629,416.122l11.032,2.995c0.726,0.197,1.273,0.715,1.552,1.355
		c0.156-1.109-0.523-2.186-1.632-2.487l-10.44-2.835c-1.177-0.32-2.383,0.358-2.739,1.516
		C248.983,416.136,249.812,415.901,250.629,416.122z"/>
	<path style="opacity:0.8;fill:#FFB287;" d="M258.58,429.965l-11.032-2.995c-0.727-0.197-1.273-0.715-1.552-1.355
		c-0.156,1.109,0.523,2.186,1.632,2.487l10.44,2.835c1.177,0.32,2.384-0.358,2.739-1.516
		C260.226,429.951,259.397,430.186,258.58,429.965z"/>
	<path style="fill:#AF1E3A;" d="M401.929,154.499c-15.992,2.444-31.626,7.393-31.033,16.442l-1.34-20.461
		c-0.614-9.274,16.37-14.029,33.16-16.248c-0.562,1.278-0.613,3.109-1.043,5.9C400.968,144.816,401.949,145.747,401.929,154.499z"/>
	<path style="fill:#EAA93F;" d="M345.169,480.939v4.305c-20.297-0.685-37.659,13.211-39.981-1.145
		c-0.828-5.143,10.931-9.97,16.094-8.793c0,0,15.839,2.73,17.117,3.241C338.829,478.72,341.928,479.732,345.169,480.939z"/>
	<g>
		<g>
			<path style="fill:#FFFFFF;" d="M474.323,145.665v4.99c-0.419-1.196-1.104-2.035-2.045-2.607
				c-1.544-0.971-3.783-1.227-6.718-1.227h-40.716c-2.71,0-11.943,0.123-23.089,1.646c-0.082-1.217-0.174-2.178-0.235-3.047
				c8.211-1.125,15.368-1.493,19.724-1.616c1.626-0.041,2.853-0.051,3.599-0.051h40.716c2.403,0,4.734,0.174,6.718,0.889
				C473.014,144.908,473.7,145.235,474.323,145.665z"/>
			<path style="fill:#CDC8D6;" d="M401.755,148.466c-0.879,0.123-1.759,0.256-2.659,0.389c-13.436,2.055-22.771,5.286-27.066,9.254
				c-0.777,0.716-1.391,1.452-1.83,2.219c-0.634,1.074-1.166,3.15-1.166,4.397v-7.035c0-0.767,0.562-1.534,0.879-1.82
				c0.573-0.521,1.197-1.023,1.871-1.503c6.35-4.468,17.158-7.055,26.841-8.538c0.982-0.153,1.943-0.286,2.894-0.409
				C401.581,146.289,401.673,147.25,401.755,148.466z"/>
		</g>
	</g>
</g>
</svg>
